:SAMPLES-PER-SECOND 30
:FULLY-SPECIFIED
:DEGREES
140
root  -56.1353 41.3548 -5.09331 -18.5103 -87.2419 13.7178
RightUpLeg  0.102595 -7.84906 -2.82391
RightLeg  7.56084 -2.42997 3.95347
RightFoot  -1.43031 0.391974 -4.62722
RightToes  1.74622e-010 0 -3.6325e-017
Spine  -0.648644 -0.539093 6.36543
Spine1  12.9721 0.164383 -2.32464
HEad  -11.4936 1.02773 -2.70179
LeftShoulder1  8.26457 -11.6014 -47.747
LeftArm  -9.44542 19.804 -27.1545
LeftForeArm  23.8108 -18.9453 -3.79102
LeftHand  -0.244104 0.0205437 5.32207
RightShoulder  6.94656 10.213 44.1942
RightArm  -4.70489 -13.5121 30.864
RightForeArm  6.14707 12.2816 6.75821
RightHand  -1.27268 4.13376 -15.6924
LeftUpLeg  -1.88586 5.21218 5.23368
LeftLeg  4.44478 0.802223 -2.23137
LeftFoot  2.04066 0.296262 -2.63158
LeftToes  1.00041e-010 1.90862e-010 2.54823e-011
141
root  -56.4237 41.424 -4.98573 -27.0684 -87.7803 22.8201
RightUpLeg  0.436703 -7.72802 -3.07448
RightLeg  6.56556 -1.76819 3.87713
RightFoot  -1.47088 0.34827 -4.14469
RightToes  1.74622e-010 0 -3.6325e-017
Spine  -1.23428 -0.447125 6.15856
Spine1  12.5994 0.374113 -2.93311
HEad  -10.627 1.12138 -2.34006
LeftShoulder1  7.55419 -10.8588 -45.8508
LeftArm  -11.4513 19.3329 -25.8387
LeftForeArm  24.2127 -18.3357 -3.66958
LeftHand  -0.244104 0.0205437 5.32207
RightShoulder  6.51251 9.77074 42.7382
RightArm  -10.5925 -15.3916 30.4431
RightForeArm  7.41785 10.3946 5.94749
RightHand  -1.3483 4.64018 -15.7937
LeftUpLeg  -0.99084 5.19637 5.26979
LeftLeg  2.79977 1.59459 -2.92717
LeftFoot  2.12001 0.265845 -2.36173
LeftToes  1.00041e-010 1.90862e-010 2.54823e-011
142
root  -56.6705 41.4846 -4.86805 -36.2417 -88.1745 32.4892
RightUpLeg  0.745504 -7.62256 -3.27985
RightLeg  5.60036 -1.2946 3.80082
RightFoot  -1.40583 0.317911 -3.76338
RightToes  1.74622e-010 0 -3.6325e-017
Spine  -1.6785 -0.480585 5.75608
Spine1  12.2199 0.351103 -3.1638
HEad  -9.7596 1.13202 -2.18967
LeftShoulder1  6.70914 -9.96794 -43.2933
LeftArm  -13.608 18.97 -23.831
LeftForeArm  23.8038 -17.1504 -3.52126
LeftHand  -0.244104 0.0205437 5.32207
RightShoulder  6.00107 9.27695 40.77
RightArm  -13.6276 -16.5356 28.2174
RightForeArm  5.61845 9.11266 5.32998
RightHand  -1.41644 4.96263 -16.0749
LeftUpLeg  -0.341316 5.12744 5.12599
LeftLeg  1.47621 2.33258 -3.21159
LeftFoot  2.19546 0.256067 -2.26997
LeftToes  1.00041e-010 1.90862e-010 2.54823e-011
143
root  -56.8771 41.5249 -4.76414 -40.9854 -88.3512 37.6661
RightUpLeg  0.886517 -7.50544 -3.36457
RightLeg  4.98761 -1.15227 3.69628
RightFoot  -1.3696 0.294499 -3.47882
RightToes  1.74622e-010 0 -3.6325e-017
Spine  -1.86342 -0.659838 4.84307
Spine1  11.5917 -0.0103835 -2.62303
HEad  -9.0995 1.37673 -2.2828
LeftShoulder1  5.75685 -8.95818 -39.9201
LeftArm  -15.3225 18.9326 -21.3147
LeftForeArm  22.6339 -15.3916 -3.31383
LeftHand  -0.244104 0.0205437 5.32207
RightShoulder  5.36698 8.64258 38.1304
RightArm  -15.4238 -16.9055 24.6217
RightForeArm  2.52411 7.89506 4.84376
RightHand  -1.41675 4.86154 -16.2302
LeftUpLeg  0.00921462 5.12741 4.98977
LeftLeg  0.586726 2.54039 -3.32547
LeftFoot  2.3437 0.257054 -2.26108
LeftToes  1.00041e-010 1.90862e-010 2.54823e-011
144
root  -57.0605 41.5455 -4.66819 -45.3264 -88.5516 42.459
RightUpLeg  0.796264 -7.36979 -3.376
RightLeg  4.71107 -1.01709 3.59342
RightFoot  -1.45079 0.266642 -3.19222
RightToes  1.74622e-010 0 -3.6325e-017
Spine  -2.01064 -0.794185 3.89709
Spine1  10.8524 -0.36206 -1.88912
HEad  -8.64721 1.83591 -2.51387
LeftShoulder1  4.86851 -7.97628 -36.2914
LeftArm  -15.8373 19.1089 -17.8043
LeftForeArm  21.5306 -13.5572 -3.08754
LeftHand  -0.244104 0.0205437 5.32207
RightShoulder  4.58852 7.7373 34.8504
RightArm  -17.219 -16.8364 20.4274
RightForeArm  -0.310175 7.10601 4.28393
RightHand  -1.33889 4.37612 -16.0919
LeftUpLeg  0.0340791 5.13514 4.90279
LeftLeg  0.255916 2.74809 -3.39819
LeftFoot  2.18605 0.240545 -2.13975
LeftToes  1.00041e-010 1.90862e-010 2.54823e-011
145
root  -57.2232 41.5518 -4.56287 -57.837 -88.8112 55.3567
RightUpLeg  0.61552 -7.31759 -3.46966
RightLeg  4.68764 -0.638418 3.53032
RightFoot  -1.65626 0.237039 -2.92816
RightToes  1.74622e-010 0 -3.6325e-017
Spine  -2.10259 -0.790218 3.35994
Spine1  10.1691 -0.449127 -1.56832
HEad  -8.12074 2.13159 -2.62484
LeftShoulder1  4.14767 -7.16068 -32.8229
LeftArm  -15.4533 19.1133 -13.2884
LeftForeArm  20.4171 -11.6538 -2.89639
LeftHand  -0.244104 0.0205437 5.32207
RightShoulder  3.76285 6.6097 31.253
RightArm  -18.8576 -16.4931 15.9643
RightForeArm  -2.02463 6.9155 3.7584
RightHand  -1.25054 3.9622 -15.6998
LeftUpLeg  -0.146879 5.11037 4.75913
LeftLeg  0.49013 3.28291 -3.4051
LeftFoot  1.64332 0.217325 -1.9977
LeftToes  1.00041e-010 1.90862e-010 2.54823e-011
